<?xml version="1.0" encoding="utf-8"?>
<!-- Generator: Adobe Illustrator 23.0.1, SVG Export Plug-In . SVG Version: 6.00 Build 0)  -->
<svg version="1.1" id="Layer_1" xmlns="http://www.w3.org/2000/svg" xmlns:xlink="http://www.w3.org/1999/xlink" x="0px" y="0px"
	 viewBox="0 0 265 84" enable-background="new 0 0 265 84" xml:space="preserve">
<path fill="#FFFFFF" d="M82.4,60.9c-1,0.4-1.9,0.6-2.8,0.6c-1.9,0-3.5-0.4-4.6-1.3c-1.1-0.8-1.8-1.9-2-3.1h15.9
	c0.4-3,0.3-5.7-0.4-7.9c-0.7-2.3-1.9-4-3.6-5.3c-1.7-1.2-4-1.9-6.7-1.9c-2.4,0-4.6,0.6-6.5,1.7c-1.9,1.1-3.4,2.7-4.6,4.7
	s-1.7,4.3-1.7,6.9c0,2.6,0.6,4.8,1.7,6.7c1.1,1.9,2.7,3.3,4.7,4.4c2,1,4.4,1.5,7.2,1.5c2.5,0,4.5-0.4,6.1-1.2c1.6-0.8,2.9-1.8,4-3.1
	l-4.2-4.4C84.2,59.9,83.4,60.5,82.4,60.9z M75,48.6c0.9-0.8,2-1.2,3.3-1.2c1.3,0,2.4,0.4,3.2,1.1c0.8,0.7,1.1,1.9,1.1,3.4h-9.4
	C73.5,50.5,74.1,49.4,75,48.6z"/>
<path fill="#FFFFFF" d="M131.6,67.4c0-4.4,0.2-7.9,0.7-10.5s1.2-4.6,2.2-5.8c1-1.2,2.4-1.8,4.1-1.8c1.1,0,2,0.1,2.7,0.4l1.3-7.2
	c-0.5-0.2-1-0.3-1.4-0.3c-0.5-0.1-1-0.1-1.5-0.1c-1.7,0-3.3,0.5-4.8,1.5c-1.5,1-2.7,2.7-3.6,5.1l0.3-6.2H124l0.1,8.8v16.2H131.6z"/>
<path fill="#FFFFFF" d="M147.7,66.3c1.6,1,3.5,1.5,5.7,1.5c3.5,0,6.2-1.4,8-4.2l-0.2,3.7h7.6V42.5h-5.4l-0.6,3
	c-0.7-1-1.6-1.9-2.8-2.5c-1.2-0.6-2.6-1-4.2-1c-2.4,0-4.6,0.6-6.5,1.7c-1.9,1.2-3.5,2.8-4.6,4.9c-1.1,2.1-1.7,4.5-1.7,7.3
	c0,2.3,0.4,4.4,1.2,6.2C144.9,63.9,146.1,65.3,147.7,66.3z M152.2,50.5c1-1.3,2.4-2,4.2-2c1.5,0,2.6,0.5,3.5,1.4
	c0.9,0.9,1.3,2.3,1.3,3.9c0,2.2-0.6,4-1.8,5.4s-2.6,2.1-4.3,2.1c-1.4,0-2.5-0.5-3.3-1.5c-0.8-1-1.2-2.4-1.2-4.2
	C150.6,53.6,151.2,51.9,152.2,50.5z"/>
<path fill="#FFFFFF" d="M175.8,58.5c0,2.8,0.9,5.1,2.7,6.8c1.8,1.7,4.2,2.6,7.3,2.6c3.4,0,5.9-0.7,7.6-2.1l-2.2-5.7
	c-0.7,0.5-1.4,0.9-2.1,1.1c-0.7,0.2-1.4,0.3-2.1,0.3c-1.2,0-2.2-0.3-2.8-1c-0.6-0.7-0.9-1.6-0.9-2.8l0.1-9h7.9v-6.2h-7.8l0-5.1h-7.5
	l0,5.1h-4.2v6.2h4.1L175.8,58.5z"/>
<path fill="#FFFFFF" d="M200.1,66.3c2,1,4.4,1.5,7.2,1.5c2.5,0,4.5-0.4,6.1-1.2c1.6-0.8,2.9-1.8,4-3.1l-4.2-4.4
	c-0.7,0.8-1.5,1.3-2.5,1.7s-1.9,0.6-2.8,0.6c-1.9,0-3.5-0.4-4.6-1.3c-1.1-0.8-1.8-1.9-2-3.1h15.9c0.4-3,0.3-5.7-0.4-7.9
	c-0.7-2.3-1.9-4-3.6-5.3c-1.7-1.2-4-1.9-6.7-1.9c-2.4,0-4.6,0.6-6.5,1.7c-1.9,1.1-3.4,2.7-4.6,4.7s-1.7,4.3-1.7,6.9
	c0,2.6,0.6,4.8,1.7,6.7C196.5,63.8,198.1,65.3,200.1,66.3z M203.4,48.6c0.9-0.8,2-1.2,3.3-1.2c1.3,0,2.4,0.4,3.2,1.1
	c0.8,0.7,1.1,1.9,1.1,3.4h-9.4C201.9,50.5,202.5,49.4,203.4,48.6z"/>
<path fill="#FFFFFF" d="M229.8,67.9c1.1,0,2.2-0.2,3.2-0.5s1.8-0.7,2.3-1.2l-1.8-5.4c-0.5,0.4-1.2,0.5-1.9,0.5
	c-1.4,0-2.1-0.8-2.1-2.3V31h-7.5v28.7c0,2.7,0.7,4.7,2,6.1C225.3,67.2,227.2,67.9,229.8,67.9z"/>
<path fill="#FFFFFF" d="M9.4,31.8c0.9,0.9,1.3,1.9,1.3,3.1c0,1.2-0.4,2.3-1.3,3.1c-0.9,0.9-2,1.3-3.4,1.3c-1.4,0-2.6-0.4-3.4-1.3
	c-0.9-0.9-1.3-1.9-1.3-3.1c0-1.2,0.4-2.3,1.3-3.1c0.8-0.9,2-1.3,3.5-1.3C7.4,30.5,8.6,30.9,9.4,31.8z"/>
<path fill="#FFFFFF" d="M31.9,42c-2,0-3.7,0.5-5.3,1.5c-1.6,1-2.9,2.4-3.9,4.2l0.3-5.4h-7.5v25H23c0-3.6,0.2-6.6,0.6-9
	c0.4-2.4,0.8-4.3,1.4-5.6c0.6-1.4,1.3-2.3,2.1-2.9c0.8-0.6,1.7-0.9,2.7-0.9c1.2,0,2,0.5,2.6,1.4c0.5,0.9,0.8,2.2,0.8,3.9l-0.1,13.2
	h7.5l0.1-13.7c0-3.8-0.7-6.7-2.2-8.7C37.1,43,34.9,42,31.9,42z"/>
<path fill="#FFFFFF" d="M60.7,61.1c-0.7,0.2-1.4,0.3-2.1,0.3c-1.2,0-2.2-0.3-2.8-1c-0.6-0.7-0.9-1.6-0.9-2.8l0.1-9H63v-6.2h-7.8
	l0-5.1h-7.5l0,5.1h-4.2v6.2h4.1l-0.2,9.9c0,2.8,0.9,5.1,2.7,6.8c1.8,1.7,4.2,2.6,7.3,2.6c3.4,0,5.9-0.7,7.6-2.1L62.8,60
	C62.1,60.6,61.4,60.9,60.7,61.1z"/>
<rect x="2.2" y="42.4" fill="#FFFFFF" width="7.5" height="25"/>
<path fill="#FFFFFF" d="M113,43l-0.6,3c-0.7-1-1.6-1.9-2.8-2.5c-1.2-0.6-2.7-1-4.3-1c-2.5,0-4.6,0.6-6.6,1.7
	c-1.9,1.2-3.5,2.8-4.6,4.8c-1.1,2-1.7,4.4-1.7,7.1c0,2.2,0.4,4.2,1.3,5.9c0.9,1.7,2.1,3,3.7,4c1.6,1,3.6,1.4,5.8,1.4
	c3.5,0,6.1-1.3,7.9-3.9l0,0.4c-0.2,2.7-0.8,4.6-2,5.8c-1.1,1.2-3.1,1.9-5.8,1.9c-1.6,0-3-0.2-4.3-0.5c-1.3-0.3-2.5-0.8-3.6-1.4
	l-1.8,6.4c0.8,0.5,1.7,0.9,2.7,1.2c1,0.3,2.2,0.5,3.3,0.7c1.2,0.1,2.2,0.2,3.2,0.2c3.2,0,5.9-0.6,8.3-1.7c2.3-1.1,4.2-2.8,5.5-5
	c1.3-2.2,1.9-5.1,1.9-8.5V43H113z M110.1,57.5c-0.5,1-1.3,1.9-2.2,2.5c-0.9,0.6-1.9,0.9-3.1,0.9c-1.4,0-2.6-0.5-3.4-1.4
	c-0.8-0.9-1.3-2.2-1.3-3.9c0-1.9,0.5-3.5,1.6-4.7c1-1.2,2.5-1.9,4.3-1.9c1.5,0,2.7,0.4,3.5,1.3c0.9,0.9,1.3,2.1,1.3,3.6
	C110.9,55.3,110.6,56.5,110.1,57.5z"/>
<g>
	<g>
		<g>
			<path fill="#FFFFFF" d="M244,41.5c2.2,0.1,2.9-0.2,3-1.6c0.1-2.4,0.1-4.9,0-7.3c0-0.9-0.7-1.5-1.6-1.6c-0.5,0-1,0-1.5,0
				c-1,0-1.7,0.7-1.7,1.8c0,1.2,0,2.3,0,3.5c0,1.2,0,2.4,0,3.6C242.2,40.8,242.9,41.4,244,41.5z"/>
		</g>
		<g>
			<path fill="#FFFFFF" d="M255.7,41.5c2.1,0,2.9-0.4,2.9-1.6c0-2.4,0-4.9,0-7.3c0-0.9-0.7-1.5-1.6-1.5c-0.5,0-1,0-1.4,0
				c-1.1,0-1.7,0.7-1.8,1.8c0,1.1,0,2.3,0,3.4c0,1.2,0,2.4,0,3.6C253.8,40.9,254.5,41.5,255.7,41.5z"/>
		</g>
		<path fill="#FFFFFF" d="M264.7,46.8c0-0.5,0-1,0-1.5c0-1-0.8-1.7-1.8-1.7h-5.2c0.2,3,0.5,8.4,0,11.2c-0.6,3.4-3.5,6-7,6.2
			c-3.7,0.2-6.5-1.4-7.8-5.1c-0.4-1.1-0.5-2.2-0.5-3.3c0-2.1,0.2-6.6,0.1-9h-5.3c-1,0-1.8,0.8-1.8,1.8v9.1c0.1,1.3,0.3,2.7,0.8,3.9
			c0.9,2.4,2.4,4.5,4.4,6.1c1,0.8,2.3,1.5,3.4,2.1c0.6,0.3,1.6,0.6,1.6,0.6c1.8,0.5,1.3,2.5,1.1,4.1c-0.2,1-0.6,2-1.2,2.9
			c-1.2,1.7-3.2,2.7-5.3,2.7h-116v6.9h116c7.4,0,13.5-6,13.5-13.5v-2.7c5.3-1.3,9.6-5.7,10.7-11c0.2-1.2,0.3-2.6,0.4-4.2V46.8z"/>
	</g>
</g>
<g>
	<g>
		<path fill="#FFFFFF" d="M21.7,1.1H24l-4.9,17h-2.8L13,4.4L9,18.2H6.2l-4.2-17h2.4l3.3,14l4-14h2.7l3.3,14L21.7,1.1z"/>
		<path fill="#FFFFFF" d="M30.5,18.4c-1.9,0-3.4-0.5-4.5-1.6c-1.1-1.1-1.6-2.6-1.6-4.4c0-1.2,0.3-2.4,0.8-3.3c0.5-1,1.2-1.7,2.1-2.3
			c0.9-0.5,1.9-0.8,3-0.8c1.7,0,3,0.6,3.9,1.8c0.9,1.2,1.2,2.9,0.9,5.2h-8.4c0,1.1,0.4,1.9,1.1,2.5c0.7,0.6,1.6,0.9,2.8,0.9
			c0.6,0,1.2-0.1,1.7-0.4c0.6-0.3,1-0.7,1.4-1.2l1.4,1.3c-0.6,0.7-1.2,1.3-2,1.7S31.5,18.4,30.5,18.4z M30.2,7.7c-1,0-1.8,0.3-2.4,1
			s-1,1.5-1.1,2.5h6.3c0-1.2-0.2-2.1-0.7-2.6S31.1,7.7,30.2,7.7z"/>
		<path fill="#FFFFFF" d="M54.2,6.2v12h-2.4l0.1-2.5c-0.4,0.8-1,1.5-1.8,2c-0.7,0.5-1.5,0.7-2.5,0.7c-1,0-1.9-0.2-2.6-0.7
			c-0.7-0.5-1.3-1.2-1.6-2c-0.4-0.8-0.6-1.8-0.6-2.9c0-1.3,0.3-2.5,0.8-3.5c0.5-1,1.2-1.8,2.1-2.4C46.7,6.3,47.7,6,48.8,6
			c0.8,0,1.5,0.2,2.1,0.5c0.6,0.3,1,0.8,1.3,1.4l0.3-1.7H54.2z M48.9,8c-1.1,0-2,0.4-2.7,1.3c-0.7,0.8-1,1.9-1,3.3
			c0,1.2,0.3,2.1,0.8,2.8c0.5,0.7,1.2,1,2.1,1c0.7,0,1.4-0.2,1.9-0.6s1-1,1.4-1.7c0.3-0.7,0.5-1.6,0.5-2.6c0-1.1-0.3-1.9-0.8-2.5
			S49.9,8,48.9,8z"/>
		<path fill="#FFFFFF" d="M61.3,18.4c-1.3,0-2.2-0.4-2.9-1.3s-1-2.1-1-3.6l0.1-7.3h2.3l-0.1,7.1c0,0.9,0.2,1.7,0.5,2.2
			c0.3,0.5,0.9,0.8,1.6,0.8s1.4-0.3,2-0.9c0.6-0.6,1-1.6,1.4-3.1c0.3-1.5,0.5-3.5,0.5-6H68v12h-2.3l0.1-3.3
			c-0.5,1.2-1.1,2.1-1.9,2.7S62.3,18.4,61.3,18.4z"/>
		<path fill="#FFFFFF" d="M76.2,18.4c-1.4,0-2.5-0.4-3.3-1.1c-0.7-0.8-1.1-1.8-1.1-3L72,8.1h-2.1V6.2H72l0-2.5h2.3l0,2.5h4.1v1.9
			h-4.1L74.2,14c0,0.7,0.2,1.3,0.6,1.7s0.9,0.6,1.7,0.6c0.4,0,0.7,0,1-0.1c0.3-0.1,0.7-0.3,1-0.5l0.7,1.8c-0.4,0.3-0.8,0.5-1.3,0.7
			C77.3,18.3,76.8,18.4,76.2,18.4z"/>
		<path fill="#FFFFFF" d="M85.8,6c1.7,0,3.1,0.5,4.1,1.6c1,1.1,1.5,2.5,1.5,4.3c0,1.2-0.2,2.3-0.7,3.3c-0.5,1-1.2,1.7-2.1,2.3
			c-0.9,0.6-1.9,0.9-3.1,0.9c-1.8,0-3.1-0.5-4.1-1.6c-1-1.1-1.5-2.5-1.5-4.4c0-1.2,0.2-2.3,0.7-3.3c0.5-1,1.2-1.7,2.1-2.3
			C83.5,6.2,84.6,6,85.8,6z M85.5,16.3c1.1,0,1.9-0.4,2.6-1.2c0.6-0.8,1-1.9,1-3.2c0-1.2-0.3-2.2-0.9-2.9c-0.6-0.7-1.3-1-2.3-1
			c-1.1,0-2,0.4-2.6,1.2c-0.7,0.8-1,1.9-1,3.2c0,1.2,0.3,2.2,0.9,2.9C83.6,16,84.4,16.3,85.5,16.3z"/>
		<path fill="#FFFFFF" d="M94.2,18.2v-12h2.3l-0.1,3.5c0.5-1.3,1.1-2.2,1.9-2.8c0.8-0.6,1.7-0.9,2.6-0.9c1,0,1.8,0.3,2.4,0.8
			c0.6,0.6,1.1,1.4,1.3,2.5c0.5-1.1,1.1-2,2-2.5c0.8-0.6,1.7-0.8,2.7-0.8c1.3,0,2.3,0.4,2.9,1.3c0.7,0.9,1,2.2,1,3.8l0,7.1h-2.3
			l0-6.9c0-1-0.2-1.8-0.5-2.4c-0.4-0.5-0.9-0.8-1.7-0.8c-0.5,0-1,0.2-1.4,0.5c-0.5,0.3-0.9,0.9-1.2,1.6s-0.6,1.8-0.9,3.1
			c-0.2,1.3-0.3,2.9-0.3,4.9h-2.3v-6.9c0-1-0.2-1.8-0.5-2.4c-0.3-0.5-0.9-0.8-1.6-0.8c-0.5,0-1,0.2-1.5,0.5
			c-0.5,0.3-0.9,0.9-1.2,1.6S97,12,96.8,13.3c-0.2,1.3-0.3,2.9-0.3,4.9H94.2z"/>
		<path fill="#FFFFFF" d="M127.1,6.2v12h-2.4l0.1-2.5c-0.4,0.8-1,1.5-1.8,2c-0.7,0.5-1.5,0.7-2.5,0.7c-1,0-1.9-0.2-2.6-0.7
			s-1.3-1.2-1.6-2c-0.4-0.8-0.6-1.8-0.6-2.9c0-1.3,0.3-2.5,0.8-3.5c0.5-1,1.2-1.8,2.1-2.4c0.9-0.6,1.9-0.9,3.1-0.9
			c0.8,0,1.5,0.2,2.1,0.5c0.6,0.3,1,0.8,1.3,1.4l0.3-1.7H127.1z M121.9,8c-1.1,0-2,0.4-2.7,1.3s-1,1.9-1,3.3c0,1.2,0.3,2.1,0.8,2.8
			c0.5,0.7,1.2,1,2.1,1c0.7,0,1.4-0.2,1.9-0.6s1-1,1.4-1.7c0.3-0.7,0.5-1.6,0.5-2.6c0-1.1-0.3-1.9-0.8-2.5S122.8,8,121.9,8z"/>
		<path fill="#FFFFFF" d="M135.4,18.4c-1.4,0-2.5-0.4-3.3-1.1c-0.7-0.8-1.1-1.8-1.1-3l0.1-6.1H129V6.2h2.1l0-2.5h2.3l0,2.5h4.1v1.9
			h-4.1l-0.1,5.9c0,0.7,0.2,1.3,0.6,1.7s0.9,0.6,1.7,0.6c0.4,0,0.7,0,1-0.1c0.3-0.1,0.7-0.3,1-0.5l0.7,1.8c-0.4,0.3-0.8,0.5-1.3,0.7
			C136.5,18.3,135.9,18.4,135.4,18.4z"/>
		<path fill="#FFFFFF" d="M145.1,18.4c-1.9,0-3.4-0.5-4.5-1.6c-1.1-1.1-1.6-2.6-1.6-4.4c0-1.2,0.3-2.4,0.8-3.3s1.2-1.7,2.1-2.3
			c0.9-0.5,1.9-0.8,3-0.8c1.7,0,3,0.6,3.9,1.8c0.9,1.2,1.2,2.9,0.9,5.2h-8.4c0,1.1,0.4,1.9,1.1,2.5c0.7,0.6,1.6,0.9,2.8,0.9
			c0.6,0,1.2-0.1,1.7-0.4c0.6-0.3,1-0.7,1.4-1.2l1.4,1.3c-0.6,0.7-1.2,1.3-2,1.7S146.1,18.4,145.1,18.4z M144.8,7.7
			c-1,0-1.8,0.3-2.4,1s-1,1.5-1.1,2.5h6.3c0-1.2-0.2-2.1-0.7-2.6S145.7,7.7,144.8,7.7z"/>
		<path fill="#FFFFFF" d="M174.5,6.2h2.3l-4.4,12h-2.8l-2.7-9l-3.3,9h-2.8l-3.8-12h2.4l2.9,9.7l3.5-9.7h2.3L171,16L174.5,6.2z"/>
		<path fill="#FFFFFF" d="M179.6,3.8c-0.5,0-0.8-0.1-1.1-0.4c-0.3-0.3-0.4-0.6-0.4-1s0.1-0.7,0.4-1c0.3-0.3,0.6-0.4,1.1-0.4
			c0.5,0,0.8,0.1,1.1,0.4c0.3,0.3,0.4,0.6,0.4,1s-0.1,0.7-0.4,1C180.5,3.7,180.1,3.8,179.6,3.8z M180.7,6.2v12h-2.3v-12H180.7z"/>
		<path fill="#FFFFFF" d="M189,18.4c-1.4,0-2.5-0.4-3.3-1.1c-0.7-0.8-1.1-1.8-1.1-3l0.1-6.1h-2.1V6.2h2.1l0-2.5h2.3l0,2.5h4.1v1.9
			H187l-0.1,5.9c0,0.7,0.2,1.3,0.6,1.7s0.9,0.6,1.7,0.6c0.4,0,0.7,0,1-0.1c0.3-0.1,0.7-0.3,1-0.5l0.7,1.8c-0.4,0.3-0.8,0.5-1.3,0.7
			C190.1,18.3,189.5,18.4,189,18.4z"/>
		<path fill="#FFFFFF" d="M193.4,18.2V0.4h2.3l0,5.7l-0.2,3.5c0.4-1.2,1.1-2.1,1.9-2.8c0.8-0.6,1.8-1,2.9-1c1.3,0,2.3,0.4,2.9,1.3
			c0.7,0.9,1,2.2,1,3.8l0,7.1h-2.3l0-6.8c0-2.2-0.7-3.2-2.2-3.2c-0.8,0-1.5,0.3-2.1,0.9c-0.6,0.6-1.1,1.6-1.4,3.1s-0.5,3.5-0.6,6
			H193.4z"/>
	</g>
</g>
</svg>
